# xmcd
#
# Track frame offsets: 
#        150
#        22341
#        39049
#        50986
#        68157
#        79702
#        102264
#        124856
#        144984
#        154504
#        172788
#        188878
#        211277
#        225657
#        244657
#        257198
#
# Disc length: 3773 seconds
#
# Revision: 0
# Processed by: cddbd v1.5.2PL0 Copyright (c) Steve Scherf et al.
# Submitted via: ExactAudioCopy v1.0b3
#
DISCID=d50ebb10
DTITLE=合辑 - 草原歌典-第四辑
DYEAR=2006
DGENRE=
TTITLE0=我从草原来
TTITLE1=为了草原更美好
TTITLE2=请喝一碗马奶酒
TTITLE3=金珠尔
TTITLE4=草原晨曲
TTITLE5=牧人
TTITLE6=萨日朗之约
TTITLE7=心中自有歌
TTITLE8=四海
TTITLE9=遥望草原
TTITLE10=草原故乡
TTITLE11=四岁的海骝马
TTITLE12=送亲歌
TTITLE13=走上这高高的兴安岭
TTITLE14=辽阔的草原
TTITLE15=彩虹
EXTD=
EXTT0=
EXTT1=
EXTT2=
EXTT3=
EXTT4=
EXTT5=
EXTT6=
EXTT7=
EXTT8=
EXTT9=
EXTT10=
EXTT11=
EXTT12=
EXTT13=
EXTT14=
EXTT15=
PLAYORDER=
